<?xml version="1.0" encoding="UTF-8"?>
<svg id="Capa_2" data-name="Capa 2" xmlns="http://www.w3.org/2000/svg" viewBox="0 0 763.83 369.85">
  <defs>
    <style>
      .cls-1 {
        fill: #000;
      }

      .cls-2 {
        fill: #000;
      }
    </style>
  </defs>
  <path class="cls-2" d="M653.01,31.44c-16.97,4.27-34.48,3.78-51.87,4.19-109.38,2.57-220.48.64-329.99.13-71.67-.34-143.9-.14-215.25-2.23-6.1-.18-13.48.14-19.43-.57-1.19-.14-3.6-.33-3.48-2.04,8.82-2.21,17.71-1.73,26.53-2.68.51-.05,1.98-.23,1.88-1-13.2-7.71-27-11.44-41.99-14.06-2.57-.45-12.46-1.15-13.8-1.99-2.9-1.82,3.88-4.1,5.14-4.34,7.64-1.47,20.34-.45,28.28.4,13.64,1.45,28.1,4.88,39.6,12.5,4.54,3.01,7.17,7,13.02,7.5,19.29,1.67,42.51-.48,62.1-.57,112.05-.5,223.93-.68,335.8-2.63,35.68-.62,71.36-.5,106.86-4.19,1.99-.21,11.99-1.08,12.66-2.08,2.21-3.31-3.29-4.39-5.35-4.69-16.11-2.42-39.37-.85-56.28-1.09-72.55-1.03-145.34.69-217.86-.57-15.28-.26-30.56.16-45.81-1.04-2.21-.17-17.66-1.87-18.15-2.65-.08-.12-.06-1.48-.01-1.54.16-.2,4.34-.87,5.07-.99,18.51-3.02,41.43-1.62,60.48-2.15,74.13-2.09,148.43-4.76,222.62-1.61,19.33.82,38.63,1.62,57.82,4.29,11.41,1.59,40.02,5.96,45.35,17.27,2.44,5.17.64,6.32-3.96,8.43Z"/>
  <path class="cls-2" d="M80.36,254.48c-4.17-.15-8.01-.33-12.12-1.3-1.32-.31-8.94-2.09-7.32-4.46,11.31-4.25,23.65-2.87,35.52-3.17,119.09-2.92,237.81,5.3,356.85,3.68,35.6-.48,72.62-1.21,107.09,9.19,28.83,8.69,46.47,24.14,49.94,55.3,1.95,17.52-3.79,47.01-22.29,54.4-24.11,9.62-46.76-23.25-51.86-43.15,8.73,1.14,13.75,10.42,19.2,16.31,11.11,12,26.35,18.84,35.26-.02,13.43-28.39-14.72-56.29-40.26-63.91-40.13-11.97-94.06-12.62-136.08-14.45-73.61-3.2-147.5-6.24-221.3-7.39-.55-.87-2-.53-2.89-.54-36.21-.38-73.72.82-109.75-.52Z"/>
  <path class="cls-2" d="M557.21,235.02c29.61,2.15,55.32,17.91,65.12,46.7,1.89,5.56,2.88,16.83,5.7,21.13,2.61,3.99,10.25,2.52,14.92,4.56,1.35.59,7.76,4.84,4.43,5.89-3.55,1.13-16.28.97-20.45.64-4.12-.32-7.96-1.77-9.35-5.91-2.29-6.82-2.8-15.57-5.14-22.75-3.7-11.38-11.89-18.12-19.44-26.6-11.72-13.15-33.66-11.63-50.26-12.63-55.53-3.36-111.18-3.05-166.83-3.7-76.94-.9-153.85.14-230.56-3.66-1.89-.09-13.3-.09-13.91-1.1-1.2-1.94,1.23-1.37,2.2-1.66,5.73-1.74,14.88-1.82,21.16-2.01,42.31-1.24,84.6,1.56,126.9,1.63,84.47.13,169.76-4.31,254.74-1.62,6.67.21,14.31.61,20.77,1.07Z"/>
  <path class="cls-2" d="M287.21,107.72h-121.06c-.29,7.95.38,16.01.02,23.96-.09,2.04-.25,6.74-.56,8.38-.82,4.27-7.55,4.13-8.36-1.61l-.28-30.76c-.52-.74-11.46-.94-14.18-3.07-2.07-1.62,1.22-4.39,2.7-5.19,3.46-1.85,7.44-2.07,11.24-2.54.88-1.24.53-25.21.49-28.91-.01-1.12-.52-2.14-.54-3.14-.2-9.21,2.03-16.23,12.34-17.11l117.27.14c3.11.97,6.25,2.31,7.7,5.46,1.68,3.65,2,10.5,2.18,14.65,1.01,22.69-.79,46.15-.03,68.92-.85,4.48-8.93,3-8.93.01v-29.2ZM287.21,57.74l-120.28-.56-.68.12c-.08.38-.61,1.04-.61,1.23v39.19l121.58-.53v-39.45Z"/>
  <path class="cls-2" d="M448.26,107.72h-120c-.51.51-.48.53-.56,1.26-.7,6.95,1.59,27.27-1.08,32.09-2.23,4.02-7.21.68-7.8-3.13l-.12-29.86c-.72-2.15-14.69-1.65-14.67-5.87.02-3.66,11.86-4.92,14.53-5.49,1.1-1.56-.24-32.95.21-38.19s2.9-8.43,7.9-9.99c39.58-1.82,79.53-.25,119.24-.8,9.58.31,11.27,8.64,11.82,16.59,1.61,23.39-1.21,48.51.03,72.09-.53,4.1-8.33,5.64-8.99-1.58-.75-8.17.87-17.74.05-25.85-.05-.51.02-1.03-.56-1.26ZM448.79,57.22h-119.21c-.28,0-1.17.81-1.84.53v39.98h121.06v-40.51Z"/>
  <path class="cls-2" d="M389.84,311.29c-11.45-.08-23.62-.47-35.01,0-.64.03-1.96-.4-1.83.52,14.82.18,29.67-.21,44.49-.02,2.64.03,5.24-.08,7.88-.02,3.32.07,6.4.71,10,.57.64-.03,1.96.4,1.83-.52-2.19-.13-4.43.15-6.62.02-.68-.04-1.2-.54-1.27-.55,12.18.41,24.42.15,36.6.5,21.19.62,43.06,1.31,64.19,3.71,2.26.26,17.03,1.91,17.1,3.94-1.8,1.26-4.49,1.94-6.63,2.3-13.16,2.25-28.65,1.44-42.06,1.62-76.18,1.02-152.81-2.57-228.91-5.26-27.85-.98-55.92-1.03-83.73-2.59-2.4-.13-19.55-1.38-20.24-2.13-2.37-2.55,8.68-3.57,9.74-3.67,22.45-2.1,44.94-.33,67.34.02,54.73.85,109.47.34,164.24,1.02.89.01,2.34-.34,2.89.54Z"/>
  <path class="cls-2" d="M707.75,63.53c2.31-1.57,5.25,6.7,5.79,8.14,23.78,63.33,36.32,141.25,32.09,208.84-.47,7.45-2.76,34.81-7.36,39.46-1.89,1.91-2.82.94-4.13-1.14-2.7-4.26-3.38-16.14-3.76-21.49-2.44-34.38-1.5-68.76-3.14-103.12-1.63-34.15-9.18-67.38-15.42-100.85-1.82-9.77-6.16-19.79-4.07-29.85Z"/>
  <path class="cls-2" d="M661.95,202.93v45.24c-.27,9.99-2.45,36.59-8.42,44.19-4.79.26-3.64-7.21-5.79-9.99-.03-.17.02-.35,0-.53-.03-.84.33-2.18-.53-2.63-.03-.35.03-.71,0-1.05-2.18-25.06-1.78-51.35-1.01-76.54l-1.62-18.68c0-.53,0-1.05,0-1.58.01-2.49.43-5.73-.53-7.89,0-1.23,0-2.46,0-3.68-.01-1.48.43-3.7-.53-4.73-.85-24.03-4.46-48.32-5.78-72.34-.52-9.47-1.34-21.71-.55-31.05.31-3.7,1.09-7.72,4.74-3.65,8.21,9.18,13.21,50.28,14.75,63.64,3.1,26.93,4.77,54.16,5.27,81.27Z"/>
  <path class="cls-2" d="M610.37,87.73c.06-6.82-1.08-13.87-4.84-19.63-5.67-8.68-15.12-10.42-24.88-10.91-21.61-1.08-44.13.83-65.84.05-12.17-2.18-27.03,1.06-38.95-.52-5-.66-5.4-8.66.53-8.47,34.88,1.67,71.71-2.14,106.37,0,20.94,1.29,34.77,9.82,36.49,31.92.48,6.19.9,14.07-6.11,16.38-1.62.54-6.16,1.17-7.77,1.17h-116.06c-.33,9.53.44,19.17.02,28.69-.1,2.25-.23,7.02-.57,8.89-.99,5.48-8.39,3.03-8.39-.5v-47.08h130Z"/>
  <path class="cls-2" d="M679.18,63.62c3.23-.94,8.83,6.19,10.58,8.68,23.08,32.68,30.18,84.36,31.67,123.52,1.16,30.41.96,63.75-1.06,94.16-.15,2.25-.51,7.55-2.07,8.97-4.31,3.94-5.99-7.2-6.33-10.03-3.06-25.28.53-55.53-.51-81.55-1.27-31.57-8.77-63.56-20.29-92.82-5.59-14.2-16.92-31.88-14.44-47.59.18-1.15,1.32-3.03,2.46-3.36Z"/>
  <path class="cls-2" d="M126.84,48.44c1.78-1.62,4.9-1.66,6.45.32,1.4,1.78.6,5.76.75,8.19,1.07,16.91,1.32,37.22.55,54.21-.69,15.13-5.27,23.75-21.32,26.03H4.81c-3.77.17-6.63-3.11-3.42-6.09,4.46-4.16,13.04-2.63,18.73-2.85,30.26-1.15,60.72-.3,91.06-.53,8.23-1.27,13.67-5.32,14.44-13.97,1.77-19.74-1.88-42.47-.03-62.1.11-1.15.36-2.4,1.25-3.22Z"/>
  <path class="cls-2" d="M721.83,61.54c8.62-1.35,22.06,9.19,27.48,15.42,10.08,11.59,17.23,31.42,13.54,46.64s-17.65,12.68-23.99.62c-4.93-9.37-6.78-22.16,2.61-29.35,1.84-1.41,4.13-1.98,5.64-3.72-4.74-6.89-10.34-14.09-17.09-19.12-2.02-1.5-10.76-5.89-11.15-7.31-.54-1.96,1.27-2.93,2.95-3.19Z"/>
  <path class="cls-2" d="M568.79,157.69c1.35-1.62.72-8.31,2.43-8.88,3.85-.09,7.65-.91,11.53-.61.81.06,5.18.9,5.41,1.17.15.17.77,3.96.62,4.11-1.91.18-11.47-.59-12.11,1.05-.38.99-.83,8.12-.52,8.41.18.17,3.26.5,4.73,1.06,8.62,3.29,12.76,8.74,11.62,18.18-.06.46-3.6,4.66-4.14,4.95-2.44,1.35-7.02,1.81-9.78,1.53-3.15-.32-8.58-2.19-8.75-5.72,2.45.2,3.49,2.21,6.09,2.58,7.83,1.1,11.36-5.05,9.57-12.18-.3-1.21-3.36-4.79-4.42-5.58-2.94-2.22-8.2-1.41-10.59-3.05-1.05-.72-.55-1.84-1.71-2.28-.16-1.39-.03-3.27,0-4.73Z"/>
  <path class="cls-1" d="M32.99,30.91c-.11,1.71,2.29,1.9,3.48,2.04,5.96.71,13.33.39,19.43.57,71.35,2.09,143.58,1.89,215.25,2.23,109.51.51,220.61,2.44,329.99-.13,17.39-.41,34.89.08,51.87-4.19-14.5,6.64-37.6,3.1-53.4,5.28-160.56-.03-321.25.53-481.59-1.62-21.74-.29-43.58.2-65.31-.48-5.74-.18-13.19-.4-18.79-1.21-2.76-.4-4.86-1.5-.93-2.49Z"/>
  <path class="cls-1" d="M557.21,235.02c-6.46-.47-14.1-.86-20.77-1.07-84.98-2.69-170.27,1.75-254.74,1.62-42.3-.06-84.59-2.87-126.9-1.63-6.28.18-15.43.27-21.16,2.01-.97.3-3.4-.28-2.2,1.66.62,1,12.02,1,13.91,1.1,76.71,3.79,153.62,2.76,230.56,3.66,55.66.65,111.3.34,166.83,3.7,16.6,1,38.54-.52,50.26,12.63-8.64-7.82-20.04-9.79-31.32-11.04-23.73-2.64-48.73-2.08-72.65-2.61-105.34-2.32-210.95-1.75-316.28-4.78-10.06-.29-20.54.08-30.57-.48-2.35-.13-11.41-.84-12.88-1.86-.88-.62-.05-1.13.55-1.56,2.9-2.05,15.62-2.77,19.69-2.94,25.4-1.05,51.06.86,76.32,1.1,50.31.47,100.35-.02,150.57-.53,54.45-.55,110.89-2.23,165.22,0,5.16.21,10.48-.25,15.55,1.03Z"/>
  <path class="cls-2" d="M563.53,170.84c.6,1.46,2.06,5.72,2.12,7.13.03.68-.94,5.75-1.16,5.96-.18.18-1.04-.1-1.36.18-.26.22-.06,1.06-.28,1.27-3.14,2.98-7.28,3.72-11.54,3.2-.82-.1-5.15-1.11-5.15-1.7,0-2.09,4.95-1.16,6.54-1.35,7.54-.9,7.22-11.15,3.7-16.23-.81-1.17-8.21-3.76-6.55-5.29.38-.35,4.18.82,4.97,1.08.59.2,4.17,1.56,4.36,1.69.88.56,2.42,3.97,4.35,3.54.07.14-.06.37,0,.53Z"/>
  <path class="cls-1" d="M563.53,170.84c3.71,3.61,3.54,10.45.53,14.47-4.76,6.34-16.09,6-21.33.28-1.08-1.18-4.32-7.66-1.05-6.85.47.12,2.45,5.15,7.08,6.08,10.98,2.19,12.21-13.21,2.94-17.14-2.6-1.1-5.81-.88-8.02-1.98-5.22-2.59-1.32-12.94-1.18-17.45,7.1.18,20.97-4.45,20.5,6.81-4.58-1.74-8.95-.94-13.69-.53l-.52,8.42c4.43-.38,12.82,3.32,14.74,7.36-1.93.43-3.47-2.98-4.35-3.54-.2-.13-3.78-1.49-4.36-1.69-.78-.26-4.59-1.43-4.97-1.08-1.67,1.53,5.73,4.12,6.55,5.29,3.52,5.08,3.84,15.33-3.7,16.23-1.58.19-6.55-.74-6.54,1.35,0,.59,4.33,1.6,5.15,1.7,4.26.52,8.4-.22,11.54-3.2.22-.21.03-1.04.28-1.27.32-.28,1.18,0,1.36-.18.21-.21,1.18-5.29,1.16-5.96-.05-1.41-1.52-5.67-2.12-7.13ZM561.43,152.95c.38-2.42-1.44-3.62-3.56-4.11-2.51,1.03-12.8-.56-14.07.96-1.02,1.22-1.86,6.9-1.88,8.67-.04,4.54,2.02,7.46,6.88,6.59-1.28-3.55-.66-7.69.49-11.34l12.14-.76Z"/>
  <path class="cls-1" d="M647.22,278.15c-2-6.6-1.31-13.51-1.56-20.27-.92-24.81-1.06-50.45-1.07-74.94l1.62,18.68c-.78,25.18-1.17,51.48,1.01,76.54Z"/>
  <path class="cls-1" d="M192.99,255.53c-36.58-.57-73.14-.06-109.75-.52-.89-.01-2.34.34-2.89-.54,36.03,1.34,73.53.14,109.75.52.89,0,2.34-.34,2.89.54Z"/>
  <path class="cls-1" d="M389.84,311.29c6.41.05,13.11-.29,19.47,0,.07,0,.6.51,1.27.55,2.19.13,4.43-.14,6.62-.02.12.92-1.19.49-1.83.52-3.6.15-6.68-.49-10-.57-2.64-.06-5.24.05-7.88.02-14.82-.19-29.67.19-44.49.02-.12-.92,1.19-.49,1.83-.52,11.39-.47,23.55-.08,35.01,0Z"/>
  <path class="cls-1" d="M661.95,248.17v-45.24c.27,15.09.41,30.14,0,45.24Z"/>
  <path class="cls-1" d="M568.79,162.42c1.16.44.66,1.56,1.71,2.28,2.39,1.64,7.66.83,10.59,3.05,1.05.8,4.11,4.37,4.42,5.58,1.79,7.13-1.74,13.28-9.57,12.18-2.6-.37-3.64-2.38-6.09-2.58.17,3.53,5.59,5.39,8.75,5.72,2.77.28,7.34-.18,9.78-1.53.53-.29,4.08-4.49,4.14-4.95,1.14-9.44-3-14.89-11.62-18.18,17.35,3.7,17.43,28.6-3.37,25.73-3.5-.48-8.86-4.14-9.66-7.7-.36-1.63-.15-5.11,1.5-2.97,1.32,1.72,1.3,3.05,3.8,4.52,12.24,7.17,17.64-12.81,3.96-16.58-3.23-.89-7.8-.07-8.33-4.57Z"/>
  <path class="cls-1" d="M568.79,157.69c.04-1.87-.01-8.72,1.93-9.38,2.33-.79,10.97-.91,13.6-.62,4.55.5,5.74,3.15,6.05,7.36-4.73-1.58-8.87-.79-13.68-.52.63-1.64,10.2-.87,12.11-1.05.15-.15-.47-3.94-.62-4.11-.23-.26-4.6-1.1-5.41-1.17-3.88-.3-7.68.52-11.53.61-1.71.57-1.08,7.26-2.43,8.88Z"/>
  <path class="cls-1" d="M653.53,292.36c-1.77,2.25-1.99,2.02-3.37-.58-1.59-3.02-1.94-6.2-2.42-9.41,2.15,2.79,1,10.25,5.79,9.99Z"/>
  <path class="cls-1" d="M644.58,181.36c-.98-2.17-.52-5.39-.53-7.89.96,2.16.54,5.41.53,7.89Z"/>
  <path class="cls-1" d="M644.06,169.79c-.99-1.06-.47-3.23-.53-4.73.95,1.04.52,3.25.53,4.73Z"/>
  <path class="cls-1" d="M647.74,281.84c-.06-.52-.43-1.44-.53-2.63.85.45.5,1.79.53,2.63Z"/>
  <path class="cls-2" d="M561.43,152.95l-12.14.76c-1.15,3.65-1.78,7.8-.49,11.34-4.85.88-6.91-2.05-6.88-6.59.01-1.77.86-7.45,1.88-8.67,1.27-1.52,11.56.07,14.07-.96,2.12.49,3.94,1.7,3.56,4.11Z"/>
</svg>